PathFileType	4	(X/Y/Z)	Demo_SinglePerson_0-995.trc
DataRate	CameraRate	NumFrames	NumMarkers	Units	OrigDataRate	OrigDataStartFrame	OrigNumFrames
30	30	6	22	m	30	497	995
Frame#	Time	Hip			RHip			RKnee			RAnkle			RBigToe			RSmallToe			RHeel			LHip			LKnee			LAnkle			LBigToe			LSmallToe			LHeel			Neck			Head			Nose			RShoulder			RElbow			RWrist			LShoulder			LElbow			LWrist		
		X1	Y1	Z1	X2	Y2	Z2	X3	Y3	Z3	X4	Y4	Z4	X5	Y5	Z5	X6	Y6	Z6	X7	Y7	Z7	X8	Y8	Z8	X9	Y9	Z9	X10	Y10	Z10	X11	Y11	Z11	X12	Y12	Z12	X13	Y13	Z13	X14	Y14	Z14	X15	Y15	Z15	X16	Y16	Z16	X17	Y17	Z17	X18	Y18	Z18	X19	Y19	Z19	X20	Y20	Z20	X21	Y21	Z21	X22	Y22	Z22
497	16.566666666666666	0.23560602593822147	0.9387366327598619	0.23090081096375698	0.23285730089377424	0.9268069699562373	0.344820371046629	0.21650377858733494	0.5195260075135476	0.35652632894437947	0.2110472895648655	0.11627079621042527	0.3527963703287249	0.3951179983181637	0.0606555934740702	0.382194310751134	0.360018430150394	0.059584617666260394	0.42129642928954686	0.1721172723303366	0.050456197651461164	0.3335739916662151	0.23421263521278837	0.9229124903494231	0.11369766926252463	0.23217054563696463	0.5096333840772457	0.10188227625133055	0.2455546412721924	0.1046203206366096	0.10920930886855817	0.3965639094190642	0.0497423353295743	0.03505702287627729	0.35581192677373574	0.041729676277870796	0.0007554603190679914	0.21378997214971207	0.036838007169624216	0.1261863931023571	0.2865703671149546	1.532859921912895	0.21670748433339224	0.38161019761132287	1.8259541656883642	0.21339173897461658	0.45601625628467785	1.6487709171783649	0.2088779539461179	0.2557973397594843	1.4517700857574773	0.4473294434162153	0.24563259613862745	1.1761751271752292	0.46519425464864095	0.3115378790939571	0.9244297178536448	0.5033128667720531	0.24179611798056483	1.4397219961806238	-0.001620259414882087	0.19500000693948485	1.1623037166761558	-0.033786181585753826	0.25685503895361966	0.9202267344613545	-0.07211748924372412
498	16.6	0.2345364612683637	0.9387541160332932	0.2326684191322241	0.23169899399054975	0.9268729183269129	0.3467351302948059	0.21529090010614882	0.5172197872505745	0.35712745387294165	0.20986653149086582	0.11582563326606118	0.35423127138905214	0.39134833506094985	0.06308555388531796	0.38783596414845795	0.3562681516289884	0.06217822722681638	0.4270044208441498	0.17084855544702215	0.05165949917878142	0.3333431715445276	0.23321834134284425	0.922834488252772	0.1153028545564936	0.23366822044892893	0.5089583556914788	0.1063121687445446	0.244472178596764	0.10792503142760185	0.11032453033297479	0.39768980678789245	0.052723151622039055	0.033485640379021624	0.3543856301806178	0.042837609753445006	0.0003376352186320738	0.21471553933413798	0.03962678915396119	0.12477911920533159	0.2855669122942821	1.533227337676503	0.21824728220135992	0.3807120136809226	1.8229711178471695	0.2147724560399355	0.45737594038043256	1.6459853459006462	0.2074613832779761	0.2550392643277173	1.4521332915387497	0.4431030400610192	0.24435468710598843	1.1780356878692004	0.46691813966539997	0.3100053427907758	0.9274945120439132	0.5059757725948233	0.24089265949256214	1.4401323921633464	-0.0002869003230377915	0.1956404236509555	1.1640649257669484	-0.035875169349748125	0.2576244958743565	0.9220204144292288	-0.0737117953425641
499	16.633333333333333	0.2346484806061236	0.9377647843316189	0.23256989199815617	0.22954375412223693	0.9259340763844066	0.3499401182109168	0.21537731296477225	0.5174092890949046	0.35829558760093816	0.2077734759410705	0.11510650992361131	0.35164407848909063	0.39114733254883316	0.059862872708476386	0.3858635421433036	0.3609167409458799	0.05774923298907733	0.42462371095202983	0.17106609398306294	0.052760887424350034	0.3349383984069866	0.23342068321444456	0.9219658327495553	0.11542624891608505	0.2314196516119552	0.5091850164028006	0.1049833603712521	0.2447571201611494	0.1046721599535638	0.11228352279811428	0.3949090830318033	0.05238983445963259	0.03138019414540491	0.35208410003874696	0.04058224853785472	-9.861512550489247e-05	0.21301084576003987	0.039082274185653826	0.12757044352354208	0.2856262062736496	1.5329138912122968	0.2193097575589341	0.3825271242106828	1.8260348868832663	0.21072392099788115	0.45956549857123313	1.645744820512286	0.2109266768464516	0.2568748864656158	1.4520505885796064	0.44643102424138736	0.24431598084040576	1.1766349711735433	0.4665900621367684	0.3098619058725381	0.9267208336711712	0.5051916701583965	0.24102387128218888	1.4400309963941536	-0.0004816530293264674	0.194394839765897	1.1607994694722588	-0.032294607810732685	0.25792013280243475	0.9211026563150234	-0.07326969494322919
500	16.666666666666668	0.2345124126643894	0.9387444014694037	0.2328482760579439	0.23361919364559502	0.926858355692961	0.35008301747825027	0.21510388719284748	0.5193252221127357	0.3580144405133294	0.20968581122487273	0.1159106105547132	0.35305475805665715	0.39376784512323587	0.06029226889500517	0.3821540543384884	0.3609656034234594	0.05718531512982255	0.4250300834284692	0.17072281899979883	0.05203663318724193	0.33534345721868747	0.23521449835003533	0.9227265530585589	0.11207448695062137	0.2313508214073812	0.5091945469214023	0.10515296444522707	0.24475605066631081	0.10578095208919856	0.11375008883578307	0.3980171091912864	0.05067723269078137	0.03345141902320142	0.35277905286655714	0.04192428100147972	0.0008434007525440139	0.21288318731192507	0.038186476159573	0.12755144052921777	0.28549919003336877	1.5331671731464998	0.2176118939418649	0.38283005087778055	1.825108681854814	0.21185657818927184	0.459881837767081	1.6479749163956317	0.2098529199114187	0.2566225145802273	1.452287484883287	0.4455200069139098	0.2439651812067639	1.176392803486251	0.4668152839076286	0.3071557943314913	0.9263378062957286	0.5091454505747889	0.24296015760963488	1.4385485412698495	-0.002971701674513733	0.1959774666823725	1.1604593773354712	-0.035798560343695565	0.2580054185165413	0.9201488349323959	-0.07394013952110969
501	16.7	0.23688821301298965	0.938726299789048	0.235858674469276	0.23165313999526005	0.9252807125016006	0.3535050575228234	0.21314104964374653	0.5180187069471834	0.360190785108418	0.2099951560944869	0.1147015226621392	0.35246291872767105	0.3913129367959946	0.06193067892135848	0.3861490253494232	0.3565054063945186	0.0612299377838527	0.4251898719990103	0.17096622061555405	0.05263645895751317	0.33323643114177004	0.2332846716209295	0.9228309665633181	0.11540500079686218	0.23122566675412817	0.5098047973289032	0.1034365686819626	0.2445907121740943	0.10683663525988159	0.11200496385603466	0.39791734642666277	0.05188586007141861	0.03512809123704563	0.3547781814512195	0.042088042728358636	0.002046297985768559	0.21285406079059238	0.041204740222123386	0.12733388576815888	0.2876339883493682	1.5328156652068587	0.21517641326213496	0.38072423450765464	1.8236387767098214	0.21596000057198694	0.4597360209967308	1.6473318287048118	0.21103026271135164	0.2594082696501287	1.4520037526203875	0.44237956091468145	0.24684088974568977	1.1742868404299567	0.463192066433198	0.31018154932517034	0.9224915577583315	0.505319288102589	0.24266362220863918	1.4396806830291484	-0.003096019666395984	0.1942286236934351	1.1621783892809914	-0.03213441685412006	0.257661188707737	0.9220562387917757	-0.07388644868261386
502	16.733333333333334	0.23595734169423324	0.9350018937020108	0.23728387341709256	0.23496893997234636	0.9231305166600019	0.35415710945021184	0.21434894134477805	0.5163954900339333	0.35835566541428737	0.20901818695521096	0.11580081683044925	0.35015062993053603	0.3923979016669846	0.06266316438713591	0.38611091326907704	0.35955825612632664	0.06119371229997221	0.42754106310505113	0.17221125808770305	0.05133865747218441	0.3317999300535203	0.2367566561060528	0.9208732455095098	0.11707912538926259	0.23034930810582074	0.5084763709416488	0.10510433881493603	0.24366956484454855	0.10601803802586388	0.11342306779394891	0.39605910418805135	0.05483364657331665	0.03366339960658557	0.3554071235544557	0.042785724491988995	-0.0004913110542425621	0.2139421652997494	0.039956910854407925	0.12619682141336974	0.28670224635868435	1.5320069376394403	0.2176325620229302	0.37946191943270996	1.8224795140990482	0.2160799428307874	0.45591214561936055	1.6458910216330913	0.20889668626994987	0.25828728417630936	1.4530022815611596	0.44368855415490177	0.2457513886232242	1.1737666869334358	0.4649451429127939	0.31153724074221567	0.9223820423720807	0.5029481665120573	0.24171460738504086	1.4390708923126148	-0.002211632134276525	0.19786799814586564	1.1622609682416312	-0.029923592200360553	0.25690855479103947	0.9202666387461638	-0.07203404379567671
